<svg xmlns="http://www.w3.org/2000/svg" xmlns:xlink="http://www.w3.org/1999/xlink" width="2380" zoomAndPan="magnify" viewBox="0 0 1784.88 1784.99993" height="2380" preserveAspectRatio="xMidYMid meet" version="1.0"><defs><clipPath id="054505710f"><path d="M 516.464844 593.617188 L 1230.464844 593.617188 L 1230.464844 869.617188 L 516.464844 869.617188 Z M 516.464844 593.617188 " clip-rule="nonzero"/></clipPath><clipPath id="e91a8757f0"><path d="M 0.433594 0.171875 L 1745 0.171875 L 1745 1402 L 0.433594 1402 Z M 0.433594 0.171875 " clip-rule="nonzero"/></clipPath><clipPath id="469828cb0f"><path d="M 10.355469 0.171875 L 1745.882812 0.171875 L 1745.882812 1462.632812 L 10.355469 1462.632812 Z M 10.355469 0.171875 " clip-rule="nonzero"/></clipPath><clipPath id="21762832e8"><path d="M 10.355469 0.171875 L 1745.882812 0.171875 L 1745.882812 1462.632812 L 10.355469 1462.632812 Z M 10.355469 0.171875 " clip-rule="nonzero"/></clipPath><clipPath id="e89b7509a9"><path d="M 9 0.171875 L 1580 0.171875 L 1580 1269 L 9 1269 Z M 9 0.171875 " clip-rule="nonzero"/></clipPath><clipPath id="ddab1223f2"><rect x="0" width="1748" y="0" height="1463"/></clipPath></defs><g transform="matrix(1, 0, 0, 1, 19, 161)"><g clip-path="url(#ddab1223f2)"><g clip-path="url(#054505710f)"><path fill="#000000" d="M 1230.464844 728.375 C 1230.464844 766.230469 1217.46875 799.132812 1191.480469 827.058594 C 1165.105469 855.367188 1133.375 869.515625 1095.917969 869.515625 C 1058.074219 869.515625 1025.203125 856.511719 997.300781 830.117188 C 969.027344 804.105469 954.875 772.363281 954.875 734.492188 C 954.875 697.003906 967.871094 664.105469 993.859375 635.792969 C 1020.234375 607.867188 1051.964844 593.71875 1089.421875 593.71875 C 1127.261719 593.71875 1160.136719 606.722656 1188.039062 632.734375 C 1216.328125 659.132812 1230.464844 690.871094 1230.464844 728.375 Z M 792.054688 728.375 C 792.054688 766.230469 779.058594 799.132812 753.054688 827.058594 C 726.695312 855.367188 694.964844 869.515625 657.507812 869.515625 C 619.664062 869.515625 586.792969 856.511719 558.890625 830.117188 C 530.601562 804.105469 516.464844 772.363281 516.464844 734.492188 C 516.464844 697.003906 529.457031 664.105469 555.832031 635.792969 C 581.824219 607.867188 613.554688 593.71875 651.011719 593.71875 C 688.851562 593.71875 721.726562 606.722656 749.613281 632.734375 C 777.902344 659.132812 792.054688 690.871094 792.054688 728.375 Z M 792.054688 728.375 " fill-opacity="1" fill-rule="nonzero"/></g><path fill="#e5801a" d="M 381.195312 1033.632812 C 297.84375 1044.019531 205.445312 1037.070312 152.488281 972.671875 C 93.332031 900.726562 95.269531 782.234375 161.972656 715.710938 C 212.289062 665.527344 285.417969 647.949219 353.789062 628.574219 C 573.527344 566.292969 789.160156 458.359375 928.34375 277.242188 C 963.839844 231.050781 994.027344 180.570312 1034.035156 138.21875 C 1074.042969 95.875 1126.703125 61.355469 1184.902344 59.074219 C 1223.726562 57.554688 1262.316406 70.695312 1294.640625 92.242188 C 1335.707031 119.625 1367.96875 162.046875 1376.996094 210.582031 C 1389.929688 280.234375 1354.949219 349.398438 1315.992188 408.570312 C 1208.046875 572.566406 1061.285156 708.894531 898.125 818.082031 C 764.542969 907.484375 618.242188 979.9375 462.171875 1018.363281 C 437.574219 1024.414062 409.921875 1030.050781 381.195312 1033.632812 " fill-opacity="1" fill-rule="nonzero"/><path fill="#ff931e" d="M 327.246094 740.421875 C 619.773438 657.511719 906.820312 513.828125 1092.105469 272.722656 C 1139.359375 211.230469 1179.550781 144.023438 1232.808594 87.660156 C 1238.542969 81.578125 1244.488281 75.640625 1250.601562 69.859375 C 1229.546875 62.191406 1207.265625 58.199219 1184.902344 59.074219 C 1126.703125 61.355469 1074.042969 95.875 1034.035156 138.21875 C 994.027344 180.570312 963.839844 231.050781 928.34375 277.242188 C 789.160156 458.359375 573.527344 566.292969 353.789062 628.574219 C 285.417969 647.949219 212.289062 665.527344 161.972656 715.710938 C 132.960938 744.648438 116.203125 783.421875 111.398438 823.914062 C 174.21875 781.007812 252.84375 761.507812 327.246094 740.421875 " fill-opacity="1" fill-rule="nonzero"/><path fill="#ffffff" d="M 181.292969 742.761719 C 231.609375 692.574219 304.738281 675 373.105469 655.625 C 592.847656 593.34375 808.476562 485.410156 947.660156 304.292969 C 983.15625 258.101562 1013.347656 207.617188 1053.351562 165.269531 C 1093.363281 122.925781 1146.019531 88.40625 1204.222656 86.125 C 1243.042969 84.605469 1281.636719 97.742188 1313.953125 119.292969 C 1329.8125 129.855469 1344.324219 142.671875 1356.726562 157.1875 C 1341.488281 131.300781 1319.714844 108.964844 1294.640625 92.242188 C 1262.316406 70.695312 1223.726562 57.554688 1184.902344 59.074219 C 1126.703125 61.355469 1074.042969 95.875 1034.035156 138.21875 C 994.027344 180.570312 963.839844 231.050781 928.34375 277.242188 C 789.160156 458.359375 573.527344 566.292969 353.789062 628.574219 C 285.417969 647.949219 212.289062 665.527344 161.972656 715.710938 C 95.269531 782.234375 93.332031 900.726562 152.488281 972.671875 C 153.519531 973.921875 154.574219 975.152344 155.632812 976.359375 C 113.730469 904.148438 121.390625 802.5 181.292969 742.761719 " fill-opacity="1" fill-rule="nonzero"/><g clip-path="url(#e91a8757f0)"><path stroke-linecap="butt" transform="matrix(0.128789, 0, 0, -0.128809, 10.354128, 1462.631598)" fill="none" stroke-linejoin="miter" d="M 2879.451275 3330.497438 C 2232.25573 3249.860985 1514.814384 3303.810684 1103.621676 3803.79308 C 644.294216 4362.304379 659.338222 5282.20891 1177.26451 5798.658246 C 1567.953694 6188.28485 2135.773912 6324.720879 2666.65139 6475.137127 C 4372.841803 6958.652583 6047.154695 7796.586324 7127.866312 9202.674986 C 7403.480986 9561.278239 7637.876299 9953.179282 7948.522881 10281.972219 C 8259.169463 10610.704503 8668.057042 10878.694097 9119.953491 10896.404397 C 9421.409885 10908.201155 9721.046439 10806.2153 9972.03262 10638.907549 C 10290.898811 10426.323295 10541.399701 10096.984494 10611.493848 9720.185727 C 10711.918651 9179.44538 10440.307624 8642.495765 10137.819988 8183.119691 C 9299.66263 6909.949257 8160.10954 5851.576866 6893.228354 5003.908525 C 5856.010899 4309.840647 4720.036826 3747.356661 3508.205782 3449.041211 C 3317.213639 3402.066459 3102.502922 3358.306248 2879.451275 3330.497438 Z M 2879.451275 3330.497438 " stroke="#42210b" stroke-width="200" stroke-opacity="1" stroke-miterlimit="10"/></g><path fill="#c1272d" d="M 384.339844 1310.558594 C 273.375 1324.378906 150.375 1315.132812 79.878906 1229.402344 C 1.128906 1133.632812 3.707031 975.894531 92.507812 887.332031 C 159.492188 820.527344 256.839844 797.132812 347.851562 771.335938 C 640.378906 688.425781 927.425781 544.742188 1112.710938 303.636719 C 1159.964844 242.144531 1200.15625 174.9375 1253.414062 118.574219 C 1306.664062 62.191406 1376.761719 16.246094 1454.257812 13.207031 C 1505.929688 11.183594 1557.300781 28.675781 1600.34375 57.359375 C 1655.011719 93.8125 1697.964844 150.285156 1709.96875 214.894531 C 1727.183594 307.617188 1680.613281 399.695312 1628.765625 478.464844 C 1485.0625 696.78125 1289.683594 878.261719 1072.488281 1023.621094 C 894.664062 1142.628906 699.898438 1239.074219 492.136719 1290.21875 C 459.394531 1298.285156 422.578125 1305.792969 384.339844 1310.558594 " fill-opacity="1" fill-rule="nonzero"/><path fill="#ffbbc3" d="M 105.386719 914.382812 C 172.371094 847.578125 269.71875 824.183594 360.730469 798.386719 C 653.257812 715.472656 940.304688 571.792969 1125.589844 330.6875 C 1172.84375 269.195312 1213.035156 201.988281 1266.292969 145.625 C 1319.542969 89.238281 1389.640625 43.296875 1467.136719 40.257812 C 1518.808594 38.234375 1570.179688 55.722656 1613.222656 84.410156 C 1648.09375 107.675781 1678.183594 139.078125 1698.527344 175.546875 C 1679.472656 127.550781 1643.578125 86.191406 1600.34375 57.359375 C 1557.300781 28.675781 1505.929688 11.183594 1454.257812 13.207031 C 1376.761719 16.246094 1306.664062 62.191406 1253.414062 118.574219 C 1200.15625 174.9375 1159.964844 242.144531 1112.710938 303.636719 C 927.425781 544.742188 640.378906 688.425781 347.851562 771.335938 C 256.839844 797.132812 159.492188 820.527344 92.507812 887.332031 C 13.988281 965.644531 2.894531 1098.042969 55.832031 1193.863281 C 18.359375 1101.402344 34.023438 985.554688 105.386719 914.382812 " fill-opacity="1" fill-rule="nonzero"/><path fill="#b7131f" d="M 1709.96875 214.894531 C 1700.269531 162.703125 1670.367188 115.828125 1630.417969 80.519531 C 1637.527344 165.910156 1594.175781 249.925781 1546.34375 322.605469 C 1402.636719 540.921875 1207.261719 722.398438 990.066406 867.761719 C 812.242188 986.769531 617.472656 1083.214844 409.710938 1134.367188 C 376.96875 1142.425781 340.152344 1149.933594 301.914062 1154.699219 C 204.617188 1166.824219 98.078125 1161.199219 25.777344 1101.839844 C 32.105469 1148.480469 50.222656 1193.335938 79.878906 1229.402344 C 150.375 1315.132812 273.375 1324.378906 384.339844 1310.558594 C 422.578125 1305.792969 459.394531 1298.285156 492.136719 1290.21875 C 699.898438 1239.074219 894.664062 1142.628906 1072.488281 1023.621094 C 1289.683594 878.261719 1485.0625 696.78125 1628.765625 478.464844 C 1680.613281 399.695312 1727.183594 307.617188 1709.96875 214.894531 " fill-opacity="1" fill-rule="nonzero"/><path fill="#f9a048" d="M 556.601562 1445.128906 C 458.398438 1457.363281 349.542969 1449.171875 287.15625 1373.300781 C 217.460938 1288.542969 219.742188 1148.941406 298.328125 1070.566406 C 357.609375 1011.445312 443.765625 990.734375 524.3125 967.90625 C 783.199219 894.535156 1037.238281 767.371094 1201.214844 553.996094 C 1243.035156 499.574219 1278.601562 440.09375 1325.742188 390.207031 C 1372.875 340.316406 1434.898438 299.652344 1503.480469 296.964844 C 1549.214844 295.171875 1594.6875 310.65625 1632.757812 336.046875 C 1681.144531 368.304688 1719.160156 418.277344 1729.785156 475.457031 C 1745.023438 557.515625 1703.8125 639.003906 1657.925781 708.714844 C 1530.746094 901.925781 1357.832031 1062.535156 1165.621094 1191.179688 C 1008.242188 1296.503906 835.875 1381.855469 652.003906 1427.128906 C 623.027344 1434.253906 590.445312 1440.902344 556.601562 1445.128906 " fill-opacity="1" fill-rule="nonzero"/><path fill="#ff931e" d="M 584.84375 1054.207031 C 504.292969 1077.035156 418.140625 1097.746094 358.859375 1156.867188 C 297.054688 1218.507812 282.457031 1318.003906 312.9375 1398.921875 C 376.902344 1450.910156 470.820312 1455.804688 556.601562 1445.128906 C 590.445312 1440.902344 623.027344 1434.253906 652.003906 1427.128906 C 835.875 1381.855469 1008.242188 1296.503906 1165.621094 1191.179688 C 1357.832031 1062.535156 1530.746094 901.925781 1657.925781 708.714844 C 1703.8125 639.003906 1745.023438 557.515625 1729.785156 475.457031 C 1727.769531 464.578125 1724.738281 453.964844 1720.859375 443.6875 C 1712.167969 435.929688 1702.945312 428.777344 1693.289062 422.347656 C 1655.21875 396.957031 1609.746094 381.476562 1564.011719 383.265625 C 1495.429688 385.953125 1433.40625 426.621094 1386.273438 476.507812 C 1339.132812 526.394531 1303.558594 585.875 1261.742188 640.296875 C 1097.769531 853.671875 843.730469 980.835938 584.84375 1054.207031 " fill-opacity="1" fill-rule="nonzero"/><g clip-path="url(#469828cb0f)"><path stroke-linecap="butt" transform="matrix(0.128789, 0, 0, -0.128809, 10.354128, 1462.631598)" fill="none" stroke-linejoin="miter" d="M 2903.867454 1180.606493 C 2042.264498 1073.313613 1087.212791 1145.094915 539.835436 1810.656488 C -71.630597 2554.155511 -51.612363 3778.743922 637.894448 4466.291741 C 1158.004543 4984.924539 1913.87483 5166.546093 2620.548793 5366.81805 C 4891.920656 6010.484354 7120.738608 7125.960333 8559.412631 8997.763174 C 8926.322581 9475.152806 9238.394704 9996.909167 9651.922873 10434.480951 C 10065.39038 10872.204364 10609.674009 11228.897088 11211.4039 11252.490604 C 11612.617823 11268.199398 12011.496285 11132.400212 12345.709787 10909.717448 C 12770.187323 10626.716555 13103.70322 10188.295648 13196.909327 9686.705981 C 13330.57653 8966.861126 12968.974445 8252.020036 12566.395643 7640.49914 C 11450.591456 5945.617347 9933.543017 4536.70838 8247.097862 3408.222608 C 6866.355393 2484.315064 5354.068867 1735.569667 3740.872247 1338.513228 C 3486.640685 1275.890334 3200.774249 1217.604038 2903.867454 1180.606493 Z M 2903.867454 1180.606493 " stroke="#42210b" stroke-width="200" stroke-opacity="1" stroke-miterlimit="10"/></g><path fill="#e5801a" d="M 1729.785156 475.457031 C 1719.160156 418.277344 1681.144531 368.304688 1632.757812 336.046875 C 1627.660156 332.640625 1622.417969 329.425781 1617.070312 326.394531 C 1615.898438 395.035156 1580.613281 462.011719 1542.015625 520.65625 C 1414.835938 713.863281 1241.925781 874.472656 1049.710938 1003.117188 C 892.332031 1108.441406 719.964844 1193.792969 536.09375 1239.0625 C 507.117188 1246.199219 474.539062 1252.84375 440.691406 1257.0625 C 371.484375 1265.6875 296.984375 1264.160156 237.1875 1235.953125 C 238.972656 1285.792969 255.753906 1335.113281 287.15625 1373.300781 C 349.542969 1449.171875 458.398438 1457.363281 556.601562 1445.128906 C 590.445312 1440.902344 623.027344 1434.253906 652.003906 1427.128906 C 835.875 1381.855469 1008.242188 1296.503906 1165.621094 1191.179688 C 1357.832031 1062.535156 1530.746094 901.925781 1657.925781 708.714844 C 1703.8125 639.003906 1745.023438 557.515625 1729.785156 475.457031 " fill-opacity="1" fill-rule="nonzero"/><path fill="#ff931e" d="M 1729.785156 475.457031 C 1724.855469 448.960938 1714.050781 424.011719 1699.058594 401.65625 C 1706.734375 417.261719 1712.429688 433.789062 1715.617188 450.984375 C 1730.855469 533.042969 1689.644531 614.53125 1643.757812 684.242188 C 1516.578125 877.453125 1343.664062 1038.0625 1151.453125 1166.703125 C 994.074219 1272.03125 821.707031 1357.382812 637.835938 1402.65625 C 608.859375 1409.78125 576.28125 1416.429688 542.433594 1420.65625 C 444.230469 1432.890625 335.375 1424.699219 272.988281 1348.828125 C 268.828125 1343.765625 264.929688 1338.5 261.285156 1333.074219 C 268.375 1347.414062 276.992188 1360.9375 287.15625 1373.300781 C 349.542969 1449.171875 458.398438 1457.363281 556.601562 1445.128906 C 590.445312 1440.902344 623.027344 1434.253906 652.003906 1427.128906 C 835.875 1381.855469 1008.242188 1296.503906 1165.621094 1191.179688 C 1357.832031 1062.535156 1530.746094 901.925781 1657.925781 708.714844 C 1703.8125 639.003906 1745.023438 557.515625 1729.785156 475.457031 " fill-opacity="1" fill-rule="nonzero"/><path fill="#ffffff" d="M 320.222656 1100.191406 C 379.503906 1041.070312 465.65625 1020.359375 546.207031 997.53125 C 805.09375 924.160156 1059.132812 796.996094 1223.105469 583.621094 C 1264.929688 529.199219 1300.496094 469.71875 1347.636719 419.832031 C 1394.769531 369.945312 1456.792969 329.277344 1525.375 326.589844 C 1571.109375 324.800781 1616.582031 340.28125 1654.652344 365.671875 C 1672.628906 377.652344 1689.167969 392.078125 1703.398438 408.40625 C 1685.613281 379.660156 1660.964844 354.839844 1632.757812 336.046875 C 1594.6875 310.65625 1549.214844 295.171875 1503.480469 296.964844 C 1434.898438 299.652344 1372.875 340.316406 1325.742188 390.207031 C 1278.601562 440.09375 1243.035156 499.574219 1201.214844 553.996094 C 1037.238281 767.371094 783.199219 894.535156 524.3125 967.90625 C 443.765625 990.734375 357.609375 1011.445312 298.328125 1070.566406 C 219.742188 1148.941406 217.460938 1288.542969 287.15625 1373.300781 C 288.824219 1375.324219 290.535156 1377.296875 292.269531 1379.238281 C 240.367188 1293.957031 248.582031 1171.640625 320.222656 1100.191406 " fill-opacity="1" fill-rule="nonzero"/><g clip-path="url(#21762832e8)"><path stroke-linecap="butt" transform="matrix(0.128789, 0, 0, -0.128809, 10.354128, 1462.631598)" fill="none" stroke-linejoin="miter" d="M 4241.419069 135.880737 C 3478.906368 40.900154 2633.681967 104.493475 2149.271054 693.512586 C 1608.111483 1351.52302 1625.824587 2435.30848 2236.016731 3043.766464 C 2696.314772 3502.748303 3365.287729 3663.535994 3990.705863 3840.760299 C 6000.870113 4410.370862 7973.394019 5397.598794 9246.614312 7054.118379 C 9571.334319 7476.618212 9847.494945 7938.390029 10213.525306 8325.681542 C 10579.495006 8713.003381 11061.085167 9028.695547 11593.600501 9049.559736 C 11948.711826 9063.479305 12301.790997 8943.267609 12597.393573 8746.149542 C 12973.099414 8495.718619 13268.277362 8107.759937 13350.776747 7663.85005 C 13469.096637 7026.794782 13149.108213 6394.16709 12792.813992 5852.971855 C 11805.308483 4352.994341 10462.691648 3106.116425 8970.241371 2107.425319 C 7748.249557 1289.718925 6409.879015 627.09896 4982.184689 275.622284 C 4757.19188 220.307921 4504.203875 168.693314 4241.419069 135.880737 Z M 4241.419069 135.880737 " stroke="#42210b" stroke-width="200" stroke-opacity="1" stroke-miterlimit="10"/></g><path fill="#42210b" d="M 116.148438 1077.917969 L 119.652344 1085.976562 C 120.210938 1087.269531 120.765625 1088.546875 121.355469 1089.8125 C 121.941406 1091.074219 122.386719 1092.328125 123.019531 1093.566406 C 124.132812 1096.046875 125.191406 1098.46875 126.339844 1100.871094 L 127.9375 1104.453125 C 128.503906 1105.636719 129.085938 1106.808594 129.613281 1107.980469 C 133.964844 1117.355469 138.347656 1126.355469 142.773438 1135.421875 C 145.253906 1139.832031 147.253906 1144.484375 149.753906 1148.953125 C 150.96875 1151.195312 151.980469 1153.585938 153.21875 1155.855469 C 154.457031 1158.125 155.664062 1160.441406 156.804688 1162.824219 C 157.40625 1163.996094 157.914062 1165.246094 158.53125 1166.417969 C 159.152344 1167.59375 159.78125 1168.765625 160.378906 1169.96875 C 161.601562 1172.363281 162.734375 1174.871094 163.871094 1177.410156 C 166.222656 1182.441406 168.722656 1187.484375 170.566406 1193.460938 C 167.65625 1192.542969 164.929688 1191.359375 162.25 1190.082031 C 159.589844 1188.78125 156.902344 1187.460938 154.453125 1185.871094 C 152.046875 1184.234375 149.632812 1182.5625 147.3125 1180.777344 C 146.140625 1179.898438 145 1178.980469 143.847656 1178.066406 C 142.738281 1177.121094 141.703125 1176.097656 140.652344 1175.085938 C 138.550781 1173.058594 136.511719 1170.957031 134.507812 1168.8125 C 133.476562 1167.761719 132.601562 1166.589844 131.703125 1165.4375 C 130.792969 1164.289062 129.910156 1163.117188 129.035156 1161.9375 C 125.382812 1157.320312 122.570312 1152.105469 119.738281 1146.933594 C 114.578125 1136.3125 111.019531 1124.785156 110.015625 1112.90625 C 109.882812 1111.425781 109.804688 1109.9375 109.707031 1108.464844 C 109.683594 1106.96875 109.707031 1105.46875 109.742188 1103.980469 C 109.757812 1103.234375 109.789062 1102.492188 109.816406 1101.746094 C 109.847656 1101.007812 109.867188 1100.265625 109.980469 1099.515625 C 110.15625 1098.015625 110.304688 1096.53125 110.519531 1095.058594 C 110.71875 1093.589844 111.027344 1092.101562 111.359375 1090.636719 C 111.699219 1089.171875 112.015625 1087.722656 112.519531 1086.277344 C 113.40625 1083.410156 114.523438 1080.542969 116.148438 1077.917969 " fill-opacity="1" fill-rule="nonzero"/><path fill="#42210b" d="M 82.109375 1153.773438 C 84.820312 1152.796875 87.289062 1151.832031 89.730469 1150.90625 C 90.9375 1150.457031 92.144531 1149.949219 93.324219 1149.484375 C 93.910156 1149.238281 94.496094 1149.046875 95.078125 1148.820312 L 96.820312 1148.085938 C 97.972656 1147.609375 99.113281 1147.214844 100.238281 1146.738281 C 101.371094 1146.234375 102.492188 1145.773438 103.605469 1145.328125 C 105.832031 1144.503906 108.023438 1143.441406 110.199219 1142.609375 L 135.757812 1131.773438 C 137.871094 1130.824219 139.992188 1129.914062 142.152344 1129.058594 C 143.253906 1128.683594 144.273438 1128.101562 145.355469 1127.652344 C 146.425781 1127.191406 147.488281 1126.703125 148.582031 1126.265625 C 152.988281 1124.605469 157.257812 1122.515625 161.855469 1120.875 C 163 1120.453125 164.171875 1120.066406 165.277344 1119.5625 C 166.421875 1119.105469 167.5625 1118.640625 168.730469 1118.210938 C 171.046875 1117.320312 173.472656 1116.535156 175.929688 1115.75 C 180.773438 1114.058594 185.738281 1112.378906 191.488281 1111.382812 C 190.46875 1114.054688 189.210938 1116.507812 187.867188 1118.910156 C 186.523438 1121.308594 185.089844 1123.644531 183.535156 1125.871094 C 181.882812 1127.984375 180.210938 1130.105469 178.429688 1132.117188 C 176.636719 1134.121094 174.882812 1136.199219 172.84375 1137.921875 C 168.851562 1141.484375 164.761719 1145.019531 160.148438 1147.816406 C 157.867188 1149.253906 155.605469 1150.730469 153.210938 1151.980469 C 150.785156 1153.1875 148.335938 1154.351562 145.863281 1155.464844 C 135.851562 1159.65625 125.03125 1162.328125 113.96875 1162.46875 C 111.1875 1162.4375 108.460938 1162.472656 105.671875 1162.089844 C 104.292969 1161.933594 102.917969 1161.757812 101.550781 1161.542969 C 100.179688 1161.28125 98.804688 1160.988281 97.457031 1160.667969 C 96.105469 1160.332031 94.761719 1160 93.421875 1159.519531 C 92.089844 1159.035156 90.78125 1158.667969 89.480469 1158.039062 C 86.898438 1156.921875 84.347656 1155.621094 82.109375 1153.773438 " fill-opacity="1" fill-rule="nonzero"/><path fill="#e5c028" d="M 552.378906 976.628906 C 526.066406 976.636719 500.9375 963.84375 485.390625 941.183594 L 400.832031 817.953125 C 400.191406 817.023438 398.253906 814.199219 393.804688 815.140625 C 389.351562 816.082031 388.722656 819.449219 388.515625 820.554688 L 374.605469 894.925781 C 370.8125 915.203125 351.300781 928.566406 331.023438 924.773438 C 310.75 920.980469 297.386719 901.46875 301.179688 881.191406 L 315.089844 806.816406 C 321.167969 774.308594 346.003906 748.882812 378.359375 742.046875 C 410.710938 735.207031 443.707031 748.410156 462.417969 775.675781 L 546.976562 898.910156 C 547.824219 900.148438 549.824219 903.046875 554.613281 901.5625 C 559.40625 900.074219 559.40625 896.558594 559.40625 895.050781 L 559.40625 700.003906 C 559.40625 667.703125 577.660156 639.289062 607.027344 625.859375 C 636.402344 612.433594 669.824219 617.210938 694.246094 638.351562 L 844.519531 768.363281 C 845.636719 769.328125 848.246094 771.585938 852.476562 769.0625 C 856.703125 766.53125 855.949219 763.160156 855.625 761.71875 L 841.664062 699.335938 C 835.210938 670.480469 844.910156 640.332031 866.980469 620.664062 C 889.054688 600.988281 920.113281 594.816406 948.03125 604.542969 L 1044.839844 638.285156 C 1045.902344 638.652344 1049.132812 639.777344 1052.160156 636.390625 C 1055.1875 633.007812 1053.714844 629.917969 1053.230469 628.90625 L 992.726562 502.464844 C 977.40625 470.449219 983.914062 433.746094 1009.296875 408.949219 C 1034.683594 384.152344 1071.527344 378.511719 1103.164062 394.582031 C 1105.480469 395.761719 1107.550781 395.351562 1108.878906 394.792969 C 1110.199219 394.242188 1111.953125 393.0625 1112.742188 390.582031 L 1129.34375 338.621094 C 1137.910156 311.820312 1160.203125 290.992188 1187.523438 284.273438 L 1242.089844 270.855469 C 1262.117188 265.929688 1282.351562 278.175781 1287.273438 298.207031 C 1292.199219 318.242188 1279.957031 338.476562 1259.921875 343.402344 L 1205.363281 356.820312 C 1203.074219 357.382812 1201.214844 359.125 1200.5 361.363281 L 1183.898438 413.324219 C 1176.609375 436.128906 1159.757812 454.503906 1137.675781 463.734375 C 1115.589844 472.960938 1090.679688 472.035156 1069.335938 461.191406 C 1068.148438 460.589844 1064.984375 458.984375 1061.492188 462.394531 C 1057.996094 465.804688 1059.523438 469.011719 1060.105469 470.214844 L 1120.609375 596.652344 C 1134.863281 626.441406 1129.847656 661.589844 1107.832031 686.207031 C 1085.816406 710.816406 1051.441406 719.695312 1020.265625 708.832031 L 923.453125 675.09375 C 920.941406 674.21875 918.664062 674.671875 916.675781 676.445312 C 914.691406 678.210938 913.984375 680.425781 914.5625 683.019531 L 928.523438 745.402344 C 936.339844 780.351562 921.539062 814.804688 890.808594 833.179688 C 860.078125 851.558594 822.726562 848.292969 795.648438 824.867188 L 645.378906 694.851562 C 644.558594 694.140625 642.074219 691.988281 638.089844 693.808594 C 634.105469 695.625 634.105469 698.921875 634.105469 700.003906 L 634.105469 895.050781 C 634.105469 930.984375 611.054688 962.273438 576.738281 972.921875 C 568.675781 975.421875 560.46875 976.628906 552.378906 976.628906 " fill-opacity="1" fill-rule="nonzero"/><path fill="#ffffff" d="M 327.96875 835.15625 C 334.046875 802.648438 358.882812 777.222656 391.238281 770.382812 C 423.589844 763.546875 456.585938 776.75 475.296875 804.015625 L 559.855469 927.25 C 560.703125 928.488281 562.703125 931.386719 567.492188 929.902344 C 572.285156 928.410156 572.285156 924.894531 572.285156 923.390625 L 572.285156 728.339844 C 572.285156 696.039062 590.539062 667.628906 619.90625 654.199219 C 649.28125 640.769531 682.703125 645.550781 707.125 666.6875 L 857.398438 796.699219 C 858.515625 797.664062 861.125 799.925781 865.355469 797.398438 C 869.582031 794.867188 868.828125 791.496094 868.503906 790.058594 L 854.542969 727.675781 C 848.089844 698.820312 857.789062 668.671875 879.859375 649 C 901.933594 629.328125 932.992188 623.152344 960.910156 632.878906 L 1057.71875 666.621094 C 1058.78125 666.988281 1062.011719 668.117188 1065.039062 664.730469 C 1068.066406 661.34375 1066.59375 658.253906 1066.109375 657.242188 L 1054.011719 631.964844 C 1054.015625 633.246094 1053.597656 634.78125 1052.160156 636.390625 C 1049.132812 639.777344 1045.902344 638.652344 1044.839844 638.285156 L 948.03125 604.542969 C 920.113281 594.816406 889.054688 600.988281 866.980469 620.664062 C 844.910156 640.332031 835.210938 670.480469 841.664062 699.335938 L 855.625 761.71875 C 855.949219 763.160156 856.703125 766.53125 852.476562 769.0625 C 848.246094 771.585938 845.636719 769.328125 844.519531 768.363281 L 694.246094 638.351562 C 669.824219 617.210938 636.402344 612.433594 607.027344 625.859375 C 577.660156 639.289062 559.40625 667.699219 559.40625 700.003906 L 559.40625 895.050781 C 559.40625 896.558594 559.40625 900.074219 554.613281 901.5625 C 549.824219 903.046875 547.824219 900.148438 546.976562 898.910156 L 462.417969 775.675781 C 443.707031 748.410156 410.710938 735.207031 378.359375 742.046875 C 346.003906 748.882812 321.167969 774.308594 315.089844 806.816406 L 301.179688 881.191406 C 298.65625 894.707031 303.75 907.867188 313.425781 916.28125 C 313.433594 914.050781 313.636719 911.796875 314.058594 909.527344 L 327.96875 835.15625 " fill-opacity="1" fill-rule="nonzero"/><path fill="#e5c028" d="M 1072.984375 498.550781 L 1124.355469 605.910156 C 1123.300781 602.78125 1122.058594 599.6875 1120.609375 596.652344 L 1072.152344 495.390625 C 1072.152344 496.804688 1072.691406 497.9375 1072.984375 498.550781 " fill-opacity="1" fill-rule="nonzero"/><path fill="#ffffff" d="M 1022.175781 437.285156 C 1047.5625 412.492188 1084.40625 406.851562 1116.042969 422.921875 C 1118.359375 424.097656 1120.429688 423.691406 1121.757812 423.132812 C 1123.078125 422.578125 1124.832031 421.402344 1125.621094 418.921875 L 1142.222656 366.960938 C 1150.789062 340.15625 1173.082031 319.332031 1200.402344 312.613281 L 1254.96875 299.195312 C 1267.203125 296.183594 1279.503906 299.589844 1288.355469 307.257812 C 1288.367188 304.277344 1288.019531 301.238281 1287.273438 298.207031 C 1282.351562 278.175781 1262.117188 265.929688 1242.089844 270.855469 L 1187.523438 284.273438 C 1160.203125 290.992188 1137.910156 311.820312 1129.34375 338.621094 L 1112.742188 390.582031 C 1111.953125 393.0625 1110.199219 394.242188 1108.878906 394.792969 C 1107.550781 395.351562 1105.480469 395.761719 1103.164062 394.582031 C 1071.527344 378.511719 1034.683594 384.152344 1009.296875 408.949219 C 983.914062 433.746094 977.40625 470.449219 992.726562 502.464844 L 1001.757812 521.335938 C 991.738281 491.753906 999.261719 459.667969 1022.175781 437.285156 " fill-opacity="1" fill-rule="nonzero"/><path fill="#e5c028" d="M 1053.230469 628.90625 L 1001.757812 521.335938 C 1002.839844 524.523438 1004.109375 527.683594 1005.605469 530.804688 L 1054.011719 631.964844 C 1054.007812 630.546875 1053.484375 629.4375 1053.230469 628.90625 " fill-opacity="1" fill-rule="nonzero"/><path fill="#e5c028" d="M 1061.492188 462.394531 C 1064.984375 458.984375 1068.148438 460.589844 1069.335938 461.191406 C 1090.679688 472.035156 1115.589844 472.960938 1137.675781 463.734375 C 1159.757812 454.503906 1176.609375 436.128906 1183.898438 413.324219 L 1200.5 361.363281 C 1201.214844 359.125 1203.074219 357.382812 1205.363281 356.820312 L 1259.921875 343.402344 C 1276.925781 339.21875 1288.3125 324.011719 1288.355469 307.257812 C 1279.503906 299.589844 1267.203125 296.183594 1254.96875 299.195312 L 1200.402344 312.613281 C 1173.082031 319.332031 1150.789062 340.15625 1142.222656 366.960938 L 1125.621094 418.921875 C 1124.832031 421.402344 1123.078125 422.578125 1121.757812 423.132812 C 1120.429688 423.691406 1118.359375 424.097656 1116.042969 422.921875 C 1084.40625 406.851562 1047.5625 412.492188 1022.175781 437.285156 C 999.261719 459.667969 991.738281 491.753906 1001.757812 521.335938 L 1053.230469 628.90625 C 1053.484375 629.4375 1054.007812 630.546875 1054.011719 631.964844 L 1066.109375 657.242188 C 1066.59375 658.253906 1068.066406 661.34375 1065.039062 664.730469 C 1062.011719 668.117188 1058.78125 666.988281 1057.71875 666.621094 L 960.910156 632.878906 C 932.992188 623.152344 901.933594 629.328125 879.859375 649 C 857.789062 668.671875 848.089844 698.820312 854.542969 727.675781 L 868.503906 790.058594 C 868.828125 791.496094 869.582031 794.867188 865.355469 797.398438 C 861.125 799.925781 858.515625 797.664062 857.398438 796.699219 L 707.125 666.6875 C 682.703125 645.550781 649.28125 640.769531 619.90625 654.199219 C 590.539062 667.628906 572.285156 696.039062 572.285156 728.339844 L 572.285156 923.390625 C 572.285156 924.894531 572.285156 928.410156 567.492188 929.902344 C 562.703125 931.386719 560.703125 928.488281 559.855469 927.25 L 475.296875 804.015625 C 456.585938 776.75 423.589844 763.546875 391.238281 770.382812 C 358.882812 777.222656 334.046875 802.648438 327.96875 835.15625 L 314.058594 909.527344 C 313.636719 911.796875 313.433594 914.050781 313.425781 916.28125 C 318.273438 920.488281 324.261719 923.511719 331.023438 924.773438 C 351.300781 928.566406 370.8125 915.203125 374.605469 894.925781 L 388.515625 820.554688 C 388.722656 819.449219 389.351562 816.082031 393.804688 815.140625 C 398.253906 814.199219 400.191406 817.023438 400.832031 817.953125 L 485.390625 941.183594 C 500.9375 963.84375 526.066406 976.636719 552.378906 976.628906 C 560.46875 976.628906 568.675781 975.421875 576.738281 972.921875 C 611.054688 962.273438 634.105469 930.984375 634.105469 895.050781 L 634.105469 700.003906 C 634.105469 698.921875 634.105469 695.625 638.089844 693.808594 C 642.074219 691.988281 644.558594 694.140625 645.378906 694.851562 L 795.648438 824.867188 C 822.726562 848.292969 860.078125 851.558594 890.808594 833.179688 C 921.539062 814.804688 936.339844 780.351562 928.523438 745.402344 L 914.5625 683.019531 C 913.984375 680.425781 914.691406 678.210938 916.675781 676.445312 C 918.664062 674.671875 920.941406 674.21875 923.453125 675.09375 L 1020.265625 708.832031 C 1051.441406 719.695312 1085.816406 710.816406 1107.832031 686.207031 C 1127.601562 664.101562 1133.65625 633.496094 1124.355469 605.910156 L 1072.984375 498.550781 C 1072.691406 497.9375 1072.152344 496.804688 1072.152344 495.390625 L 1060.105469 470.214844 C 1059.523438 469.003906 1057.996094 465.804688 1061.492188 462.394531 " fill-opacity="1" fill-rule="nonzero"/><path fill="#af9010" d="M 1287.273438 298.207031 C 1285.359375 290.414062 1281.117188 283.800781 1275.476562 278.921875 C 1275.433594 295.671875 1264.046875 310.882812 1247.042969 315.0625 L 1192.484375 328.484375 C 1190.195312 329.046875 1188.335938 330.789062 1187.621094 333.027344 L 1171.019531 384.988281 C 1163.730469 407.792969 1146.878906 426.167969 1124.796875 435.394531 C 1102.710938 444.621094 1077.800781 443.695312 1056.457031 432.855469 C 1055.269531 432.25 1052.105469 430.644531 1048.613281 434.054688 C 1045.117188 437.46875 1046.644531 440.667969 1047.226562 441.875 L 1059.273438 467.054688 C 1059.273438 465.691406 1059.777344 464.070312 1061.492188 462.394531 C 1064.984375 458.984375 1068.148438 460.589844 1069.335938 461.191406 C 1090.679688 472.035156 1115.589844 472.960938 1137.675781 463.734375 C 1159.757812 454.503906 1176.609375 436.128906 1183.898438 413.324219 L 1200.5 361.363281 C 1201.214844 359.125 1203.074219 357.382812 1205.363281 356.820312 L 1259.921875 343.402344 C 1279.957031 338.476562 1292.199219 318.242188 1287.273438 298.207031 " fill-opacity="1" fill-rule="nonzero"/><path fill="#af9010" d="M 1096.238281 656.578125 C 1074.226562 681.1875 1039.851562 690.070312 1008.675781 679.207031 L 911.859375 645.46875 C 909.351562 644.59375 907.070312 645.046875 905.085938 646.816406 C 903.101562 648.585938 902.394531 650.796875 902.972656 653.394531 L 916.933594 715.777344 C 924.75 750.726562 909.949219 785.175781 879.214844 803.550781 C 848.488281 821.933594 811.132812 818.667969 784.058594 795.242188 L 633.789062 665.222656 C 632.96875 664.515625 630.480469 662.359375 626.496094 664.183594 C 622.511719 666 622.511719 669.292969 622.511719 670.375 L 622.511719 865.425781 C 622.511719 901.355469 599.460938 932.648438 565.148438 943.296875 C 557.082031 945.796875 548.878906 947.003906 540.789062 947.003906 C 514.476562 947.007812 489.347656 934.21875 473.796875 911.554688 L 389.238281 788.328125 C 388.601562 787.394531 386.664062 784.574219 382.210938 785.515625 C 377.757812 786.457031 377.128906 789.820312 376.925781 790.929688 L 363.015625 865.300781 C 359.222656 885.578125 339.710938 898.941406 319.433594 895.148438 C 312.671875 893.886719 306.683594 890.859375 301.835938 886.65625 C 301.765625 904.347656 314.304688 920.121094 332.3125 923.484375 C 352.589844 927.28125 372.101562 913.914062 375.894531 893.636719 L 389.804688 819.265625 C 390.007812 818.160156 390.636719 814.792969 395.089844 813.851562 C 399.542969 812.910156 401.480469 815.734375 402.117188 816.664062 L 486.675781 939.894531 C 502.226562 962.554688 527.355469 975.347656 553.667969 975.34375 C 561.757812 975.34375 569.960938 974.132812 578.027344 971.632812 C 612.339844 960.988281 635.390625 929.695312 635.390625 893.765625 L 635.390625 698.714844 C 635.390625 697.632812 635.390625 694.335938 639.375 692.519531 C 643.359375 690.699219 645.847656 692.851562 646.667969 693.5625 L 796.9375 823.578125 C 824.011719 847.003906 861.367188 850.269531 892.09375 831.890625 C 922.828125 813.515625 937.628906 779.0625 929.8125 744.113281 L 915.851562 681.730469 C 915.273438 679.136719 915.980469 676.921875 917.964844 675.15625 C 919.949219 673.386719 922.230469 672.933594 924.738281 673.808594 L 1021.554688 707.542969 C 1052.730469 718.40625 1087.105469 709.527344 1109.117188 684.917969 C 1131.132812 660.300781 1136.148438 625.152344 1121.898438 595.363281 L 1112.765625 576.285156 C 1122.0625 603.867188 1116.011719 634.476562 1096.238281 656.578125 " fill-opacity="1" fill-rule="nonzero"/><g clip-path="url(#e89b7509a9)"><path stroke-linecap="butt" transform="matrix(0.128789, 0, 0, -0.128809, 10.354128, 1462.631598)" fill="none" stroke-linejoin="miter" d="M 4208.631629 3773.042661 C 4004.324328 3772.98201 3809.207215 3872.29919 3688.491203 4048.219483 L 3031.923485 5004.909278 C 3026.949257 5012.126832 3011.905252 5034.052426 2977.358634 5026.743895 C 2942.781686 5019.435363 2937.89845 4993.294475 2936.290925 4984.712258 L 2828.283458 4407.338276 C 2798.832391 4249.916755 2647.330762 4146.172 2489.884325 4175.618406 C 2332.468219 4205.064813 2228.707043 4356.542466 2258.15811 4513.963987 L 2366.165578 5091.368295 C 2413.360079 5343.740073 2606.202392 5541.131073 2857.431219 5594.201322 C 3108.629715 5647.301896 3364.832769 5544.800501 3510.116613 5333.126023 L 4166.684331 4376.405902 C 4173.296414 4366.792606 4188.79538 4344.29082 4225.980765 4355.814646 C 4263.19648 4367.368797 4263.19648 4394.662068 4263.19648 4406.367849 L 4263.19648 5920.628841 C 4263.19648 6171.363022 4404.931637 6391.953303 4632.957512 6496.213597 C 4861.044047 6600.443566 5120.553143 6563.355043 5310.180407 6399.261834 L 6477.000757 5389.896026 C 6485.675325 5382.40554 6505.936203 5364.877195 6538.784304 5384.467698 C 6571.602074 5404.118853 6565.748258 5430.290067 6563.230813 5441.480308 L 6454.829047 5925.784236 C 6404.722803 6149.801338 6480.033823 6383.856299 6651.402031 6536.546986 C 6822.80057 6689.298325 7063.959619 6737.213179 7280.73282 6661.701796 L 8032.417477 6399.747048 C 8040.667415 6396.896417 8065.750868 6388.16257 8089.257127 6414.455088 C 8112.763385 6440.71728 8101.328728 6464.705032 8097.567726 6472.559429 L 7627.77619 7454.177078 C 7508.819356 7702.727798 7559.350229 7987.669545 7756.438834 8180.178082 C 7953.55777 8372.686619 8239.636521 8416.477156 8485.284507 8291.716583 C 8503.270586 8282.558174 8519.345834 8285.742389 8529.658257 8290.078986 C 8539.910019 8294.354932 8553.528483 8303.513341 8559.655276 8322.77026 L 8688.560566 8726.164803 C 8755.075695 8934.26083 8928.172751 9095.927971 9140.305361 9148.088444 L 9563.9943 9252.257761 C 9719.499575 9290.498666 9876.612375 9195.427106 9914.829002 9039.916114 C 9953.07596 8884.374796 9858.019683 8727.286859 9702.453746 8689.045954 L 9278.825469 8584.876637 C 9261.051704 8580.509714 9246.614312 8566.984382 9241.063802 8549.607666 L 9112.158512 8146.213123 C 9055.561508 7969.170773 8924.715056 7826.517944 8753.255856 7754.857945 C 8581.766325 7683.228272 8388.347729 7690.4155 8222.621023 7774.600078 C 8213.400503 7779.300585 8188.832671 7791.734187 8161.717065 7765.259714 C 8134.571127 7738.785241 8146.430414 7713.887713 8150.949682 7704.547349 L 8620.741218 6722.960026 C 8731.417783 6491.695045 8692.47322 6218.822988 8521.529641 6027.70944 C 8350.586062 5836.656544 8083.676286 5767.725872 7841.607317 5852.062079 L 7089.89233 6113.986502 C 7070.389718 6120.779494 7052.706945 6117.261694 7037.268641 6103.493756 C 7021.860668 6089.786468 7016.370819 6072.591708 7020.859756 6052.455339 L 7129.261522 5568.151411 C 7189.953165 5296.825973 7075.030309 5029.351918 6836.419035 4886.69909 C 6597.807761 4744.015935 6307.786025 4769.368351 6097.533915 4951.232512 L 4930.743896 5960.628646 C 4924.374458 5966.117626 4905.08416 5982.827173 4874.146891 5968.695323 C 4843.209621 5954.5938 4843.209621 5928.998777 4843.209621 5920.628841 L 4843.209621 4406.367849 C 4843.209621 4127.400295 4664.228418 3884.490184 4397.773602 3801.821899 C 4335.171127 3782.413351 4271.446418 3773.042661 4208.631629 3773.042661 Z M 4208.631629 3773.042661 " stroke="#42210b" stroke-width="160" stroke-opacity="1" stroke-miterlimit="10"/></g></g></g></svg>